<?xml version="1.0" standalone="no"?>
<!DOCTYPE svg PUBLIC "-//W3C//DTD SVG 20010904//EN"
 "http://www.w3.org/TR/2001/REC-SVG-20010904/DTD/svg10.dtd">
<svg version="1.0" xmlns="http://www.w3.org/2000/svg"
 width="1080.000000pt" height="1080.000000pt" viewBox="0 0 1080.000000 1080.000000"
 preserveAspectRatio="xMidYMid meet">
<metadata>
Created by potrace 1.14, written by Peter Selinger 2001-2017
</metadata>
<g transform="translate(0.000000,1080.000000) scale(0.100000,-0.100000)"
fill="#000000" stroke="none">
<path d="M6492 9981 c-276 -443 -613 -981 -747 -1196 -134 -214 -252 -404
-261 -422 -9 -18 -22 -37 -30 -44 -8 -6 -14 -16 -14 -21 0 -5 -8 -21 -19 -36
-21 -31 -71 -110 -447 -712 -152 -245 -351 -562 -440 -705 -90 -143 -188 -300
-218 -350 -31 -49 -94 -151 -140 -225 -47 -74 -101 -160 -119 -190 -99 -159
-285 -459 -301 -482 l-18 -28 610 0 609 0 -13 -57 c-7 -32 -15 -69 -17 -83 -3
-14 -13 -61 -22 -105 -9 -44 -18 -89 -21 -100 -2 -11 -20 -96 -39 -190 -20
-93 -42 -201 -50 -240 -8 -38 -16 -77 -19 -85 -3 -8 -7 -28 -10 -45 -2 -16
-23 -118 -46 -225 -34 -162 -59 -283 -86 -415 -2 -11 -24 -117 -49 -235 -25
-118 -48 -226 -50 -240 -3 -14 -7 -34 -9 -45 -5 -21 -86 -409 -91 -435 -2 -8
-20 -94 -40 -190 -20 -96 -39 -184 -41 -195 -2 -11 -8 -43 -14 -71 -6 -28 -13
-61 -15 -75 -3 -13 -14 -67 -25 -119 -22 -103 -78 -370 -86 -410 -11 -54 -136
-653 -165 -790 -17 -80 -33 -154 -35 -165 -8 -43 -76 -376 -99 -482 -13 -61
-26 -122 -29 -135 -2 -13 -18 -88 -34 -168 -17 -80 -33 -156 -35 -170 -3 -14
-8 -37 -12 -52 -4 -16 -5 -28 -2 -28 5 0 80 115 110 170 11 19 25 42 32 50 6
8 42 65 79 125 72 118 475 764 549 880 24 39 169 270 322 515 152 245 287 461
300 480 32 49 848 1356 860 1378 6 10 39 64 75 120 36 56 70 110 75 120 9 17
38 63 110 177 18 28 96 154 175 280 79 127 158 253 175 280 18 28 50 79 72
115 46 75 289 464 311 498 l14 22 -458 0 c-253 -1 -527 -1 -610 0 l-151 0 13
58 c7 31 15 68 18 82 10 51 36 176 40 195 2 11 9 40 15 65 5 25 12 56 14 70 5
25 20 101 22 110 1 4 9 42 22 105 11 56 24 119 42 200 10 50 22 107 25 129 4
21 8 42 11 46 3 4 7 25 11 46 3 22 12 71 21 109 8 39 17 81 19 95 3 14 14 67
25 119 12 51 22 103 25 114 7 39 45 221 74 357 16 74 31 146 34 160 9 48 77
377 122 590 25 118 47 224 50 235 2 11 8 43 14 70 6 28 12 59 14 70 2 11 27
130 56 265 29 135 54 256 57 270 2 14 13 66 23 115 11 50 22 104 25 120 12 63
16 80 20 95 2 8 7 29 10 45 2 17 7 39 9 50 3 11 23 110 46 220 23 110 43 207
45 215 4 16 73 350 81 388 2 12 20 98 40 190 19 92 44 210 54 262 11 52 24
111 28 130 5 19 9 38 10 43 0 4 6 32 12 63 7 31 10 57 8 58 -1 2 -229 -360
-506 -803z"/>
</g>
</svg>
