<?xml version="1.0" encoding="UTF-8" standalone="no"?>
<svg
   width="131.48828pt"
   height="158.125pt"
   viewBox="0 0 131.48828 158.125"
   version="1.1"
   id="svg11"
   sodipodi:docname="marche.svg"
   inkscape:version="1.1.2 (b8e25be833, 2022-02-05)"
   xmlns:inkscape="http://www.inkscape.org/namespaces/inkscape"
   xmlns:sodipodi="http://sodipodi.sourceforge.net/DTD/sodipodi-0.dtd"
   xmlns="http://www.w3.org/2000/svg"
   xmlns:svg="http://www.w3.org/2000/svg">
  <defs
     id="defs15" />
  <sodipodi:namedview
     id="namedview13"
     pagecolor="#ffffff"
     bordercolor="#666666"
     borderopacity="1.0"
     inkscape:pageshadow="2"
     inkscape:pageopacity="0.0"
     inkscape:pagecheckerboard="0"
     inkscape:document-units="pt"
     showgrid="false"
     fit-margin-top="0"
     fit-margin-left="0"
     fit-margin-right="0"
     fit-margin-bottom="0"
     inkscape:zoom="2.7796392"
     inkscape:cx="87.961056"
     inkscape:cy="105.22948"
     inkscape:window-width="2400"
     inkscape:window-height="1271"
     inkscape:window-x="-2409"
     inkscape:window-y="-9"
     inkscape:window-maximized="1"
     inkscape:current-layer="layer1" />
  <g
     inkscape:groupmode="layer"
     id="layer1"
     inkscape:label="Layer 1">
    <path
       style="fill:#ffffff;stroke:none;stroke-width:0.75px;stroke-linecap:butt;stroke-linejoin:miter;stroke-opacity:1"
       d="m 1.0792785,9.1738531 2.96801,100.6425669 7.2851205,19.42697 21.04589,15.10987 36.4256,5.12657 23.74409,-7.0153 18.077881,-17.80807 10.52295,-23.74408 L 120.33936,57.201668 121.41864,7.2851178 2.1585585,11.062586 Z"
       id="path878" />
  </g>
  <g
     inkscape:groupmode="layer"
     id="layer2"
     inkscape:label="Layer 2">
    <path
       style="fill:#008547;fill-opacity:1;fill-rule:nonzero;stroke:none"
       d="m 131.30078,97.882812 c 0,17.824218 -7.10547,32.671868 -18.66015,43.226558 C 100.76172,151.96093 84.222659,158.125 66.007813,158.125 47.789063,158.125 31.25,151.96093 19.371094,141.10937 7.820313,130.55468 0.710938,115.70703 0.710938,97.882812 L 0.636719,59.570312 H 14.53125 l 0.07422,38.3125 c 0,13.675778 5.371094,24.996088 14.101563,32.968748 9.339843,8.53125 22.5625,13.38281 37.300781,13.38281 14.734376,0 27.957036,-4.85156 37.300777,-13.38281 8.73047,-7.97266 14.10157,-19.29297 14.10157,-32.968748 l 0.15625,-83.992187 H 14.445313 l 0.04687,24.75 L 0.621094,49.65625 0.539063,6.945312 0.527344,0 H 131.48828 l -0.0156,6.945312 -0.17188,90.9375"
       id="path6" />
    <path
       style="fill:#211e1e;fill-opacity:1;fill-rule:nonzero;stroke:none"
       d="m 111.68359,43.605468 v 62.753902 c 0,6.92969 -6.11328,13.52344 -13.679681,13.52344 -3.73438,0 -7.11719,-1.51563 -9.5625,-3.96094 -2.44531,-2.44922 -3.96094,-5.82812 -3.96094,-9.5625 V 74.511718 L 75.894529,83.093752 57.339844,64.539062 86.945309,34.65625 c 2.96485,-2.996094 7.33594,-5.714844 11.50782,-5.9375 3.265621,-0.179688 6.511711,0.929687 9.136711,3.554687 l -0.004,0.0039 c 3.43359,3.433594 4.09765,7.042969 4.09765,11.328125"
       id="path4" />
    <path
       style="fill:#211e1e;fill-opacity:1;fill-rule:nonzero;stroke:none"
       d="m 34.007813,51.992187 c 2.757812,0 5.253906,-1.117187 7.058594,-2.921875 1.804687,-1.804687 2.921875,-4.296875 2.921875,-7.054687 0,-2.753907 -1.117188,-5.25 -2.921875,-7.054688 -1.804688,-1.804687 -4.300782,-2.921875 -7.058594,-2.921875 -2.753906,0 -5.25,1.117188 -7.054688,2.921875 -1.804687,1.804688 -2.921875,4.300781 -2.921875,7.054688 0,2.757812 1.117188,5.253906 2.921875,7.054687 1.804688,1.804688 4.300782,2.921875 7.054688,2.921875 z m 8.871094,51.839843 v -7.464838 c -4.851563,-5.40625 -7.804688,-12.54688 -7.804688,-20.375005 0,-3.847656 0.714844,-7.527344 2.019531,-10.921875 1.34375,-3.507812 3.320313,-6.707031 5.785157,-9.449219 v -1.472656 c -2.488282,1.820313 -5.554688,2.898438 -8.871094,2.898438 -2.144531,0 -4.1875,-0.453125 -6.035156,-1.265625 h -2.75 v 50.57812 c 0,2.42578 0.984375,4.6211 2.574218,6.21094 1.589844,1.58984 3.785157,2.57422 6.210938,2.57422 2.429687,0 4.625,-0.98438 6.214844,-2.57422 1.589843,-1.58984 2.574218,-3.78516 2.574218,-6.21094 v -2.52734 z m 5.050781,-2.95703 v 8.00781 h -0.3125 c -0.515625,2.80859 -1.882813,5.32031 -3.824219,7.26172 -2.503906,2.5039 -5.964844,4.05078 -9.785156,4.05078 -3.816406,0 -7.277344,-1.54688 -9.78125,-4.05078 -2.503906,-2.50391 -4.054688,-5.96485 -4.054688,-9.78516 V 55.78125 H 0 L 4.976563,51.371093 19.367188,38.617187 c 0.644531,-2.785156 2.0625,-5.273437 4.015625,-7.226562 2.71875,-2.722657 6.476562,-4.402344 10.625,-4.402344 4.152344,0 7.910156,1.679687 10.628906,4.402344 2.71875,2.71875 4.402344,6.476562 4.402344,10.625 0,2.007812 -0.394531,3.925781 -1.109375,5.675781 v 9.230469 l 37.023441,39.152347 1.87109,1.98047 -2.12891,1.71093 c -2.65625,2.136718 -5.6875,3.843748 -8.97656,5.003908 v 0.004 c -3.17969,1.11718 -6.59375,1.72656 -10.132811,1.72656 -6.578125,0 -12.671875,-2.08203 -17.65625,-5.625 z M 20.171875,50.730468 v -2.839843 c -0.347656,-0.8125 -0.621093,-1.660157 -0.820312,-2.535157 l -6.0625,5.375 z M 44.9375,61.09375 c -1.277343,1.769531 -2.335937,3.703125 -3.128906,5.769531 -1.085937,2.832031 -1.679687,5.90625 -1.679687,9.128906 0,7.027345 2.847656,13.394535 7.457031,18.000005 3.433594,3.43359 7.84375,5.89062 12.78125,6.917958 l -10.757813,-10.597648 3.53125,-3.59375 14.632813,14.421868 -0.230469,0.23047 c 1.046875,-0.0781 2.07422,-0.21875 3.07813,-0.41797 L 54.9375,84.906252 58.550782,81.390625 75.992189,99.238282 c 1.15234,-0.51563 2.26172,-1.11719 3.31641,-1.79688 L 44.9375,61.09375"
       id="path8" />
  </g>
</svg>
