<?xml version="1.0" encoding="UTF-8" standalone="no"?>
<!-- Created with Inkscape (http://www.inkscape.org/) -->

<svg
   width="1920"
   height="1080"
   viewBox="0 0 507.99998 285.75"
   version="1.1"
   id="svg5"
   inkscape:version="1.1.2 (b8e25be833, 2022-02-05)"
   sodipodi:docname="Mask.svg"
   inkscape:export-filename="C:\Users\Paolo\Documents\xGiove\Logo_xGiove\nero.png"
   inkscape:export-xdpi="96"
   inkscape:export-ydpi="96"
   xmlns:inkscape="http://www.inkscape.org/namespaces/inkscape"
   xmlns:sodipodi="http://sodipodi.sourceforge.net/DTD/sodipodi-0.dtd"
   xmlns="http://www.w3.org/2000/svg"
   xmlns:svg="http://www.w3.org/2000/svg">
  <sodipodi:namedview
     id="namedview7"
     pagecolor="#000000"
     bordercolor="#666666"
     borderopacity="1.0"
     inkscape:pageshadow="2"
     inkscape:pageopacity="0"
     inkscape:pagecheckerboard="0"
     inkscape:document-units="mm"
     showgrid="false"
     units="px"
     fit-margin-top="0"
     fit-margin-left="0"
     fit-margin-right="0"
     fit-margin-bottom="0"
     inkscape:zoom="0.32026164"
     inkscape:cx="779.05052"
     inkscape:cy="413.72422"
     inkscape:window-width="1920"
     inkscape:window-height="1001"
     inkscape:window-x="-32000"
     inkscape:window-y="-32000"
     inkscape:window-maximized="0"
     inkscape:current-layer="layer1" />
  <defs
     id="defs2" />
  <g
     inkscape:groupmode="layer"
     id="layer2"
     inkscape:label="Layer 2"
     transform="translate(1.4708165e-5,-76.937981)" />
  <g
     inkscape:label="Layer 1"
     inkscape:groupmode="layer"
     id="layer1"
     transform="translate(1.4708165e-5,-76.937981)">
    <g
       id="g830"
       inkscape:label="LOGHI + VARIANT COLORATE"
       transform="matrix(0.72788381,0,0,-0.72788381,-52.399174,436.45883)"
       style="fill:#ffffff;stroke:none"
       inkscape:export-filename="C:\Users\Paolo\Documents\xGiove\Logo_xGiove\nero.png"
       inkscape:export-xdpi="96"
       inkscape:export-ydpi="96">
      <g
         id="g832"
         transform="translate(411.208,414.8254)"
         style="fill:#ffffff;stroke:none">
        <path
           d="m 0,0 h -29.924 l -25.465,-40.792 v 0 l -0.004,-0.007 0.272,-10e-4 -50.442,-80.395 h 29.909 l 37.827,60.597 z"
           style="fill:#ffffff;fill-opacity:1;fill-rule:nonzero;stroke:none"
           id="path1392" />
      </g>
      <g
         id="g836"
         transform="translate(742.4092,389.2658)"
         style="fill:#ffffff;stroke:none">
        <path
           d="m 0,0 26.584,25.56 h -85.069 l -63.008,-60.598 -63.007,-60.598 h 85.072 l 26.502,25.45 h -56.768 l 23.802,22.657 h 56.482 l 26.44,25.437 H -79.789 L -55.638,0 Z"
           style="fill:#ffffff;fill-opacity:1;fill-rule:nonzero;stroke:none"
           id="path1389" />
      </g>
      <g
         id="g840"
         transform="translate(639.9932,414.8254)"
         style="fill:#ffffff;stroke:none">
        <path
           d="M 0,0 -86.623,-85.103 -67.063,0 h -32.863 l -25.245,-121.195 h 28.71 4.277 L 33.832,0 Z"
           style="fill:#ffffff;fill-opacity:1;fill-rule:nonzero;stroke:none"
           id="path1386" />
      </g>
      <g
         id="g844"
         transform="translate(441.2187,319.0822)"
         style="fill:#ffffff;stroke:none">
        <path
           d="m 0,0 -51.634,-0.041 43.928,70.372 h 51.61 z m -21.759,95.743 -2.04,-3.266 -73.614,-117.929 H 14.038 L 47.97,28.906 89.691,95.743 Z"
           style="fill:#ffffff;fill-opacity:1;fill-rule:nonzero;stroke:none"
           id="path1383" />
      </g>
      <g
         id="g848"
         transform="translate(274.8667,367.2629)"
         style="fill:#ffffff;stroke:none">
        <path
           d="M 0,0 -16.33,-25.526 H 22.615 L 8.451,-48.217 h -55.649 l 3.305,-25.416 h 66.402 l 45.844,73.439 z"
           style="fill:#ffffff;fill-opacity:1;fill-rule:nonzero;stroke:none"
           id="path1380" />
      </g>
      <g
         id="g852"
         transform="translate(215.9351,354.9944)"
         style="fill:#ffffff;stroke:none">
        <path
           d="m 0,0 47.256,34.271 h 93.875 l 15.964,25.56 H 82.5 74.447 45.631 L -3.285,24.314 -7.723,59.831 h -34.531 l 7.593,-58.247 -1.642,-1.226 -106.735,-77.257 h 36.769 l 74.62,53.882 5.109,-38.347 H 7.98 l -0.806,6.196 z"
           style="fill:#ffffff;fill-opacity:1;fill-rule:nonzero;stroke:none"
           id="path1377" />
      </g>
      <g
         id="g856"
         transform="translate(506.2129,286.6301)"
         style="fill:#ffffff;stroke:none">
        <path
           d="m 0,0 22.043,105.817 1.534,7.362 L -13.273,54.147 -42.704,7 h 24.696 L -41.583,-106.18 24.698,0 H 0.001 Z"
           style="fill:#ffffff;fill-opacity:1;fill-rule:nonzero;stroke:none"
           id="path1374" />
      </g>
    </g>
  </g>
</svg>
